<svg xmlns="http://www.w3.org/2000/svg">
  <symbol id="account" viewBox="0 0 24 24">
    <path fill-rule="evenodd" clip-rule="evenodd"
      d="M12 2a10 10 0 1 0 0 20 10 10 0 0 0 0-20ZM7.07 18.28c.43-.9 3.05-1.78 4.93-1.78s4.51.88 4.93 1.78a7.9 7.9 0 0 1-9.86 0Zm11.29-1.45c-1.43-1.74-4.9-2.33-6.36-2.33s-4.93.59-6.36 2.33A8.01 8.01 0 1 1 20 12c0 1.82-.62 3.49-1.64 4.83ZM12 6a3.5 3.5 0 0 0-3.5 3.5A3.5 3.5 0 0 0 12 13a3.5 3.5 0 0 0 3.5-3.5A3.5 3.5 0 0 0 12 6Zm0 5a1.5 1.5 0 1 1 0-3 1.5 1.5 0 0 1 0 3Z"
      fill="currentColor" />
  </symbol>
  <symbol id="arrow-right" viewBox="0 0 24 16">
    <path d="m16 0-1.41 1.41L20.17 7H0v2h20.17l-5.59 5.58L16 16l8-8-8-8Z" fill="currentColor" />
  </symbol>
  <symbol id="arrow-down" viewBox="0 0 16 24">
    <path d="m16 16-1.41-1.41L9 20.17V0H7v20.17l-5.58-5.59L0 16l8 8 8-8Z" fill="currentColor" />
  </symbol>
  <symbol id="instagram" viewBox="0 0 24 24">
    <path
      d="M7.8 2h8.4C19.4 2 22 4.6 22 7.8v8.4c0 3.2-2.6 5.8-5.8 5.8H7.8A5.8 5.8 0 0 1 2 16.2V7.8C2 4.6 4.6 2 7.8 2Zm-.2 2A3.6 3.6 0 0 0 4 7.6v8.8A3.6 3.6 0 0 0 7.6 20h8.8a3.6 3.6 0 0 0 3.6-3.6V7.6A3.6 3.6 0 0 0 16.4 4H7.6Zm9.65 1.5a1.25 1.25 0 1 1 0 2.5 1.25 1.25 0 0 1 0-2.5ZM12 7a5 5 0 1 1 0 10 5 5 0 0 1 0-10Zm0 2a3 3 0 1 0 0 6 3 3 0 0 0 0-6Z"
      fill="currentColor" />
  </symbol>
  <symbol id="twitter" viewBox="0 0 24 24">
    <path
      d="M22.46 6.01c-.77.34-1.6.57-2.47.68a4.3 4.3 0 0 0 1.9-2.38 8.6 8.6 0 0 1-2.73 1.05 4.29 4.29 0 0 0-7.32 3.91A12.18 12.18 0 0 1 3 4.79a4.27 4.27 0 0 0 1.33 5.73 4.28 4.28 0 0 1-1.95-.54v.05a4.3 4.3 0 0 0 3.44 4.21 4.3 4.3 0 0 1-1.93.07 4.3 4.3 0 0 0 4 2.98 8.61 8.61 0 0 1-6.35 1.78A12.15 12.15 0 0 0 8.12 21c7.9 0 12.21-6.54 12.21-12.21l-.01-.56a8.72 8.72 0 0 0 2.14-2.22Z"
      fill="currentColor" />
  </symbol>
  <symbol id="menu" viewBox="0 0 24 24">
    <path fill="currentColor" d="M3 4h18v2H3V4Zm0 7h18v2H3v-2Zm0 7h18v2H3v-2Z" />
  </symbol>
  <symbol id="close" viewBox="0 0 24 24">
    <path fill="currentColor"
      d="m12 10.58 4.95-4.95 1.41 1.42L13.41 12l4.95 4.95-1.41 1.41L12 13.41l-4.95 4.95-1.41-1.41L10.59 12 5.64 7.05l1.41-1.42L12 10.58Z" />
  </symbol>
</svg>