<?xml version="1.0" standalone="no"?>
<!DOCTYPE svg PUBLIC "-//W3C//DTD SVG 20010904//EN"
 "http://www.w3.org/TR/2001/REC-SVG-20010904/DTD/svg10.dtd">
<svg version="1.0" xmlns="http://www.w3.org/2000/svg"
 width="3456.000000pt" height="3456.000000pt" viewBox="0 0 3456.000000 3456.000000"
 preserveAspectRatio="xMidYMid meet">
<metadata>
Created by potrace 1.14, written by Peter Selinger 2001-2017
</metadata>
<g transform="translate(0.000000,3456.000000) scale(0.100000,-0.100000)"
fill="#000000" stroke="none">
<path d="M308 21825 c-2 -16 -1 -46 0 -66 4 -36 4 -37 50 -38 63 -1 149 -8
203 -17 24 -4 52 -7 62 -8 9 0 17 -4 17 -9 0 -4 4 -6 9 -2 14 8 224 -49 245
-67 6 -4 16 -8 23 -8 30 0 186 -85 263 -143 55 -42 180 -165 180 -177 0 -4 11
-19 24 -35 49 -57 129 -240 152 -346 7 -34 21 -111 24 -129 1 -8 3 -1032 5
-2275 2 -1503 -1 -2264 -7 -2272 -7 -9 -7 -13 1 -13 7 0 10 -4 7 -9 -3 -4 -8
-44 -11 -88 -6 -72 -11 -118 -15 -118 0 0 -3 -21 -5 -46 -9 -96 -43 -243 -81
-344 -4 -11 -9 -29 -11 -39 -2 -11 -10 -27 -18 -36 -8 -9 -15 -24 -15 -33 0
-9 -4 -17 -10 -17 -5 0 -10 -7 -10 -16 0 -36 -198 -294 -225 -294 -3 0 -18
-11 -33 -25 -15 -14 -47 -37 -72 -52 -25 -14 -53 -33 -62 -41 -10 -8 -18 -11
-18 -6 0 5 -4 4 -8 -1 -6 -9 -56 -36 -72 -40 -3 0 -14 -6 -25 -12 -11 -6 -29
-13 -40 -14 -11 -2 -22 -7 -25 -10 -12 -15 -311 -91 -410 -105 -19 -2 -44 -6
-55 -8 -11 -3 -24 -5 -30 -5 -9 -1 -10 -130 0 -139 4 -4 117 -5 133 -1 4 1 11
1 16 0 4 -1 38 -1 75 -1 36 0 95 0 131 0 36 -1 71 -1 78 -1 70 0 125 0 137 0
28 0 85 0 98 0 6 0 32 0 57 0 25 0 52 0 60 0 8 0 33 0 55 0 22 1 48 1 58 0 38
-1 153 0 172 1 23 1 26 1 85 1 25 0 53 0 63 0 22 0 102 0 125 0 9 0 37 0 62 0
25 0 50 0 55 0 128 -2 262 -2 270 0 6 1 14 1 19 0 4 -1 36 -1 70 -1 73 1 74 1
156 0 36 -1 70 0 75 1 6 1 14 1 19 0 8 -2 35 -2 201 0 39 0 75 -1 80 -2 6 -1
13 -1 17 0 3 0 33 1 65 1 32 0 76 0 98 1 22 1 45 1 50 1 6 -1 66 -2 135 -3
l124 -1 1 66 c1 36 -1 70 -4 75 -3 5 -28 11 -56 15 -134 16 -380 71 -402 88
-7 6 -13 8 -13 5 0 -16 -293 111 -335 145 -5 5 -31 23 -56 41 -90 62 -239 221
-239 254 0 7 -4 13 -8 13 -8 0 -91 160 -97 185 -1 5 -5 18 -9 27 -4 9 -9 22
-10 30 -2 7 -6 20 -9 28 -6 16 -32 117 -41 160 -3 14 -7 34 -9 45 -5 23 -18
115 -23 160 -1 17 -6 62 -10 100 -4 39 -8 1178 -8 2533 -1 2114 1 2465 13
2471 23 14 46 1 60 -32 7 -18 19 -46 27 -64 8 -17 14 -33 14 -36 0 -2 10 -26
22 -53 12 -27 23 -51 23 -54 1 -3 9 -23 19 -45 10 -22 19 -47 21 -56 2 -9 8
-25 13 -35 14 -27 35 -75 117 -279 4 -11 9 -26 11 -34 1 -8 9 -18 16 -22 7 -5
9 -9 5 -9 -4 0 -2 -10 5 -22 7 -13 13 -26 14 -30 1 -5 3 -10 4 -13 1 -3 3 -8
5 -12 3 -13 22 -58 66 -158 8 -19 31 -75 34 -85 1 -3 7 -18 14 -35 7 -16 46
-113 88 -215 41 -102 81 -197 89 -211 7 -14 11 -29 7 -33 -3 -3 -1 -6 5 -6 7
0 12 -7 12 -15 0 -8 4 -23 10 -33 5 -9 31 -69 56 -132 26 -63 76 -185 111
-270 36 -85 66 -161 66 -167 0 -7 4 -13 9 -13 5 0 6 -4 3 -10 -3 -5 -2 -10 3
-10 5 0 9 -6 9 -12 0 -7 17 -50 36 -95 20 -46 34 -83 30 -83 -3 0 0 -6 6 -13
10 -13 95 -215 100 -237 0 -3 23 -56 50 -117 27 -62 47 -113 45 -113 -3 0 2
-12 10 -27 9 -16 32 -68 52 -118 20 -49 43 -106 51 -125 8 -19 19 -45 24 -57
5 -13 13 -33 19 -45 5 -13 11 -30 12 -38 2 -8 5 -17 8 -20 3 -3 23 -48 45
-100 21 -52 45 -111 54 -130 8 -19 15 -37 16 -40 2 -6 0 -1 65 -160 26 -63 51
-124 55 -135 5 -11 7 -23 7 -27 -1 -5 3 -8 8 -8 5 0 9 -3 8 -7 -1 -5 6 -25 15
-47 9 -21 17 -40 17 -41 0 -1 8 -20 17 -41 9 -22 17 -41 18 -44 3 -8 25 -63
34 -85 35 -78 50 -116 67 -160 10 -27 23 -53 28 -57 6 -4 8 -8 4 -8 -3 0 23
-69 59 -152 35 -84 66 -161 68 -171 2 -9 7 -23 12 -30 4 -6 8 -14 9 -17 0 -3
5 -16 11 -30 6 -14 27 -65 48 -115 20 -49 44 -103 52 -120 8 -16 16 -37 18
-46 2 -9 12 -36 23 -60 42 -97 104 -249 103 -254 -1 -3 5 -18 13 -33 17 -31
30 -63 81 -187 20 -49 43 -104 51 -122 7 -17 14 -33 14 -36 0 -2 8 -22 17 -43
9 -22 17 -41 18 -44 0 -3 6 -15 13 -26 6 -12 8 -24 5 -28 -3 -3 -1 -6 5 -6 7
0 11 -3 10 -7 0 -5 3 -17 7 -28 5 -11 28 -67 53 -125 24 -58 45 -109 46 -115
2 -5 8 -21 13 -35 6 -14 23 -54 37 -90 15 -36 36 -84 47 -107 l19 -43 184 0
c182 0 184 0 191 23 10 30 12 36 15 42 1 3 3 8 5 13 2 8 8 23 38 101 11 29 20
60 20 67 0 8 4 14 8 14 4 0 11 14 14 32 4 18 17 53 28 78 11 25 20 48 19 52
-1 4 7 28 18 53 11 26 33 84 49 128 42 116 80 219 88 237 3 8 7 20 9 25 1 6
14 42 29 80 15 39 28 75 30 80 1 6 7 23 13 38 7 16 12 30 12 32 0 2 5 16 12
32 6 15 12 31 13 36 2 4 4 9 5 12 1 3 3 8 5 13 1 4 7 21 14 37 6 17 19 50 27
75 9 25 20 53 25 62 5 10 9 22 9 27 0 5 5 22 12 38 6 15 12 31 13 36 2 4 4 10
5 15 1 4 2 10 1 15 0 4 3 7 9 7 6 0 9 3 8 8 -1 4 4 23 11 42 8 19 15 40 16 45
3 11 72 196 88 235 6 14 11 30 13 35 1 6 8 24 15 40 6 17 13 36 15 43 1 8 6
21 10 30 4 9 8 19 9 22 1 3 4 12 8 20 3 8 42 114 87 235 44 121 83 227 87 235
3 8 7 20 8 25 3 9 29 78 50 130 4 11 9 25 11 30 3 14 62 175 73 200 5 11 20
52 34 90 51 140 300 812 324 875 32 84 47 128 53 155 1 6 7 19 13 30 6 11 12
23 13 28 1 4 2 8 4 10 1 1 3 9 5 17 2 14 16 51 78 210 12 30 22 58 22 62 0 3
3 10 8 14 4 4 7 13 7 20 0 7 5 25 12 41 6 15 12 30 13 33 5 13 38 102 75 198
18 46 33 89 35 95 2 14 11 36 36 95 10 23 16 42 14 42 -3 0 6 25 20 55 13 30
21 55 18 55 -3 0 -1 6 4 13 6 6 18 37 28 67 10 30 22 61 28 68 5 6 7 12 3 12
-4 0 0 13 8 29 9 16 12 31 9 35 -4 3 -1 6 5 6 7 0 12 7 12 15 0 8 18 60 39
117 53 138 320 862 338 913 7 22 18 48 23 57 6 10 10 22 10 27 0 5 5 22 12 38
6 15 11 31 10 35 -1 4 7 12 17 18 48 25 46 173 45 -2896 -1 -1583 -4 -2900 -8
-2926 -3 -25 -13 -65 -21 -87 -8 -23 -11 -41 -7 -41 4 0 2 -4 -5 -8 -6 -4 -13
-14 -15 -21 -4 -19 -34 -56 -85 -108 -39 -40 -171 -110 -238 -128 -16 -5 -34
-9 -40 -11 -44 -11 -160 -34 -201 -39 -27 -4 -59 -8 -71 -10 -13 -2 -71 -7
-130 -11 -103 -7 -152 -11 -163 -13 -3 -1 -5 -33 -5 -72 l0 -70 68 2 c37 1 69
0 71 -2 3 -2 36 -2 75 1 39 3 71 2 71 -1 0 -3 20 -3 45 1 24 4 49 4 55 0 6 -3
33 -3 60 0 28 4 52 4 55 2 4 -4 113 -5 133 -2 4 1 34 1 67 0 33 -1 88 -2 123
-3 34 -1 62 0 62 4 0 3 25 2 56 -1 30 -3 57 -2 60 2 3 5 9 6 13 4 6 -4 71 -7
111 -5 8 0 80 0 160 -1 80 -1 150 0 155 1 6 1 14 1 19 0 4 -1 36 -1 70 -1 73
1 74 1 156 0 36 -1 70 0 75 1 6 1 14 1 19 0 4 -1 38 -1 75 -1 36 0 95 0 131 0
36 -1 71 -1 78 -1 70 0 125 0 137 0 28 0 85 0 98 0 6 0 32 0 57 0 25 0 52 0
60 0 8 0 33 0 55 0 22 1 48 1 58 0 38 -1 153 0 172 1 23 1 26 1 85 1 25 0 53
0 63 0 9 0 37 0 62 0 25 0 53 0 63 0 9 0 37 0 62 0 25 0 50 0 55 0 6 0 69 0
140 0 124 0 190 -1 204 -3 3 0 11 1 16 2 6 1 27 1 48 0 l37 -2 0 74 0 73 -87
3 c-49 2 -104 5 -123 7 -19 2 -64 7 -100 10 -73 7 -102 10 -160 20 -22 4 -50
8 -63 10 -12 2 -44 9 -72 15 -71 16 -80 18 -82 20 -2 2 -6 3 -10 5 -24 6 -92
34 -118 48 -11 6 -29 15 -40 21 -80 42 -150 129 -179 221 -20 62 -35 194 -24
201 5 3 5 10 2 16 -6 10 -9 137 -4 163 1 6 1 15 0 20 -3 13 -3 186 0 200 1 6
1 12 0 15 -6 16 -4 60 3 60 4 0 5 5 1 12 -9 15 -9 192 1 207 3 6 3 11 -2 11
-7 0 -9 144 -3 175 1 6 1 12 0 15 -6 16 -4 60 3 60 4 0 5 5 1 12 -9 15 -9 192
1 207 3 6 3 11 -2 11 -7 0 -9 144 -3 175 1 6 1 12 0 15 -6 16 -4 60 3 60 4 0
5 5 1 12 -9 15 -9 192 1 207 3 6 3 11 -2 11 -7 0 -9 144 -3 175 1 6 1 12 0 15
-6 16 -4 60 3 60 4 0 5 5 1 12 -9 15 -9 192 1 207 3 6 3 11 -2 11 -7 0 -9 144
-3 175 1 6 1 12 0 15 -6 17 -4 60 3 60 6 0 6 5 1 13 -5 6 -8 26 -6 42 1 17 2
44 1 60 -1 17 -1 50 0 75 0 25 0 61 0 80 0 19 0 55 0 80 0 25 0 61 0 80 0 19
0 55 0 80 0 25 0 61 0 80 0 19 0 55 0 80 0 25 0 61 0 80 0 19 0 55 0 80 0 25
0 61 0 80 0 19 0 55 0 80 0 25 0 61 0 80 -1 48 -1 111 1 135 0 11 0 121 -1
245 0 124 0 230 1 235 1 6 1 12 0 15 -6 16 -4 60 3 60 4 0 5 5 1 12 -9 15 -9
192 1 207 3 6 3 11 -2 11 -7 0 -9 144 -3 175 1 6 1 12 0 15 -6 16 -4 60 3 60
4 0 5 5 1 12 -9 15 -9 192 1 207 3 6 3 11 -2 11 -4 0 -8 61 -8 135 0 74 4 135
8 135 5 0 5 5 1 11 -6 10 -9 190 -4 214 1 6 1 12 0 15 -6 16 -4 60 3 60 4 0 5
5 1 12 -9 15 -9 192 1 207 3 6 2 11 -4 11 -5 0 -8 10 -6 23 3 12 7 51 9 86 11
137 65 237 179 327 53 43 279 122 359 127 21 1 38 4 38 8 0 3 10 5 23 6 12 1
45 4 72 8 99 12 151 17 217 18 36 1 65 5 63 8 -2 3 20 5 48 5 l52 -1 3 65 3
66 -1305 0 -1305 -1 -13 -30 c-7 -16 -14 -34 -15 -40 -1 -5 -18 -53 -38 -105
-20 -52 -41 -111 -47 -130 -5 -19 -14 -39 -19 -45 -5 -5 -9 -15 -9 -21 0 -7
-5 -25 -12 -41 -6 -15 -12 -30 -12 -33 -1 -3 -6 -18 -13 -35 -17 -45 -26 -69
-28 -75 -4 -10 -17 -46 -25 -65 -4 -11 -15 -42 -25 -70 -9 -27 -21 -59 -26
-70 -5 -11 -26 -69 -48 -130 -87 -245 -112 -311 -126 -340 -7 -16 -11 -33 -9
-37 3 -4 1 -8 -4 -8 -5 0 -9 -6 -9 -12 0 -7 -30 -92 -66 -188 -35 -96 -71
-193 -78 -215 -8 -22 -18 -43 -24 -47 -5 -4 -7 -8 -3 -8 4 0 -4 -30 -19 -67
-14 -38 -26 -72 -27 -78 -2 -5 -8 -21 -13 -35 -14 -32 -41 -105 -93 -250 -22
-63 -45 -123 -50 -132 -6 -10 -10 -22 -10 -27 0 -5 -5 -22 -12 -38 -6 -15 -12
-32 -14 -38 -6 -23 -46 -131 -52 -140 -4 -5 -7 -14 -8 -20 -2 -11 -100 -279
-113 -310 -5 -11 -23 -60 -41 -110 -17 -49 -34 -97 -37 -105 -4 -8 -7 -17 -8
-20 -1 -3 -7 -17 -13 -31 -6 -15 -12 -35 -14 -45 -2 -11 -5 -21 -8 -24 -3 -3
-14 -30 -24 -60 -11 -30 -24 -66 -29 -80 -6 -14 -11 -29 -13 -35 -2 -10 -68
-184 -81 -215 -3 -8 -7 -22 -9 -30 -2 -8 -7 -23 -13 -35 -5 -11 -35 -92 -67
-180 -31 -88 -62 -171 -67 -185 -6 -14 -11 -27 -12 -30 -1 -3 -4 -12 -8 -20
-3 -8 -17 -49 -32 -90 -15 -41 -41 -111 -57 -155 -17 -44 -39 -104 -49 -132
-21 -58 -38 -105 -94 -258 -21 -55 -38 -104 -39 -110 -1 -5 -6 -17 -11 -25 -5
-8 -11 -21 -12 -27 -6 -25 -10 -38 -22 -68 -7 -16 -19 -50 -27 -75 -8 -25 -19
-54 -24 -65 -7 -18 -20 -50 -25 -65 -1 -3 -5 -14 -9 -25 -4 -11 -12 -32 -18
-47 -6 -16 -14 -29 -19 -29 -38 -6 -45 -2 -54 29 -5 17 -13 32 -17 32 -4 0 -8
5 -8 12 0 15 -181 470 -192 483 -4 5 -8 14 -8 21 0 6 -8 29 -17 50 -9 22 -18
45 -19 53 -2 8 -6 17 -11 20 -4 3 -9 13 -11 21 -1 8 -6 24 -11 35 -5 11 -21
52 -36 90 -15 39 -34 84 -41 100 -7 17 -22 55 -34 85 -22 59 -37 94 -51 122
-5 10 -9 22 -9 28 0 9 -11 36 -58 140 -9 19 -17 42 -18 50 -2 8 -8 26 -15 40
-6 14 -15 34 -19 45 -5 11 -14 36 -22 55 -25 58 -43 105 -43 110 -1 3 -9 20
-18 37 -10 18 -17 34 -17 35 2 5 -12 42 -28 78 -9 19 -17 42 -18 50 -2 8 -8
23 -13 35 -11 20 -410 1011 -415 1030 -2 6 -7 19 -11 30 -51 121 -177 433
-180 445 -2 8 -13 38 -26 65 -12 28 -23 52 -23 55 -1 3 -14 37 -29 75 -35 86
-35 85 -86 215 -46 115 -50 124 -80 192 -12 26 -21 54 -21 62 0 8 -4 17 -9 20
-5 3 -12 18 -16 33 -3 15 -15 46 -26 70 -10 23 -19 45 -19 48 0 3 -8 25 -19
48 -10 23 -40 96 -65 162 -26 66 -53 134 -60 150 -8 17 -57 140 -111 275 -53
135 -101 254 -106 265 -5 11 -22 52 -37 90 l-29 70 -1441 0 -1441 1 -3 -31z"/>
<path d="M10549 21853 c0 -2 -1 -16 -1 -33 0 -92 2 -102 17 -97 8 4 17 2 20
-3 4 -7 13 -7 24 0 10 5 21 7 25 3 3 -3 20 -7 38 -9 84 -8 118 -13 190 -28 88
-19 258 -73 272 -87 6 -5 18 -9 28 -9 10 0 18 -4 18 -10 0 -5 9 -10 20 -10 11
0 20 -4 20 -10 0 -5 6 -10 13 -10 18 0 132 -74 197 -129 64 -54 110 -104 162
-175 21 -28 42 -56 48 -63 5 -7 10 -19 10 -27 0 -8 4 -16 8 -18 21 -8 102
-213 116 -293 3 -17 8 -41 11 -55 3 -14 8 -43 12 -65 8 -50 12 -4535 4 -4535
-3 0 -6 -21 -6 -47 0 -49 -3 -80 -30 -258 -1 -11 -4 -21 -5 -22 -1 -2 -4 -12
-5 -23 -1 -11 -3 -21 -5 -22 -1 -2 -3 -12 -4 -23 -2 -11 -10 -47 -20 -80 -66
-234 -162 -389 -339 -551 -76 -69 -328 -196 -437 -219 -8 -2 -15 -4 -15 -5 0
-1 -7 -3 -15 -5 -8 -1 -42 -10 -75 -18 -33 -9 -73 -18 -90 -21 -53 -10 -149
-26 -175 -30 -20 -2 -26 -10 -30 -37 -9 -58 0 -108 18 -107 10 0 37 -1 62 -1
25 0 54 -1 65 0 11 0 46 -1 78 -1 32 0 62 2 68 5 5 4 9 3 9 -2 0 -4 54 -8 120
-8 66 0 120 2 120 6 0 3 25 2 56 -1 30 -3 57 -2 60 2 3 5 9 6 13 4 6 -4 71 -7
111 -5 8 0 80 0 160 -1 80 -1 150 0 155 1 6 1 14 1 19 0 4 -1 36 -1 70 -1 73
1 74 1 156 0 36 -1 70 0 75 1 6 1 14 1 19 0 4 -1 38 -1 75 -1 36 0 95 0 131 0
36 -1 71 -1 78 -1 70 0 125 0 137 0 28 0 85 0 98 0 6 0 32 0 57 0 25 0 52 0
60 0 8 0 33 0 55 0 22 1 48 1 58 0 9 0 46 0 82 0 36 0 73 0 83 0 9 1 35 1 57
0 22 0 47 0 55 0 8 0 33 0 55 0 22 0 45 0 50 0 6 0 28 0 50 0 22 0 48 0 58 0
9 0 41 1 70 1 29 1 57 1 62 0 6 -2 26 -2 45 -1 l35 1 -2 67 c-2 87 0 82 -20
81 -17 -1 -77 7 -138 17 -96 16 -124 21 -165 30 -14 4 -36 8 -50 11 -39 9 -42
10 -90 24 -25 7 -49 14 -55 16 -53 12 -282 114 -312 139 -33 27 -38 31 -43 31
-18 -2 -169 138 -220 204 -43 55 -129 202 -136 230 0 3 -6 19 -13 35 -29 68
-60 175 -75 260 -3 17 -8 41 -11 55 -9 45 -17 105 -21 155 -2 28 -7 70 -10 95
-8 65 -11 4381 -3 4386 4 2 22 -15 40 -38 19 -24 38 -48 44 -54 5 -6 17 -22
25 -34 8 -12 20 -28 25 -34 6 -6 24 -29 40 -51 16 -22 48 -63 70 -91 22 -28
51 -66 65 -84 14 -18 43 -56 65 -84 22 -28 66 -85 97 -126 32 -41 69 -88 83
-104 14 -16 25 -32 25 -35 0 -3 13 -20 28 -37 15 -18 34 -42 42 -54 8 -12 23
-32 34 -43 10 -12 32 -41 49 -64 17 -24 34 -43 39 -43 4 0 8 -5 8 -11 0 -9 50
-76 110 -147 11 -13 20 -28 20 -33 0 -5 3 -9 8 -9 4 0 18 -16 31 -35 13 -19
32 -45 43 -57 11 -13 45 -57 76 -98 32 -41 59 -77 62 -80 3 -3 17 -21 32 -42
15 -20 35 -43 44 -52 8 -9 13 -16 9 -16 -3 0 4 -11 17 -24 13 -14 39 -46 58
-73 19 -26 41 -52 47 -56 7 -4 13 -12 13 -17 0 -6 9 -20 19 -32 19 -22 196
-249 244 -312 35 -47 216 -279 232 -299 8 -9 15 -21 15 -26 0 -5 4 -11 8 -13
5 -1 33 -34 63 -73 30 -38 57 -71 61 -73 5 -2 8 -8 8 -14 0 -5 6 -15 13 -22
14 -14 38 -45 102 -131 25 -33 51 -67 58 -75 7 -8 35 -44 63 -80 27 -36 51
-67 54 -70 3 -3 38 -48 78 -101 39 -52 81 -105 92 -117 11 -11 20 -24 20 -27
0 -6 8 -17 53 -66 15 -17 27 -34 27 -38 0 -3 14 -20 30 -38 17 -18 30 -35 30
-39 0 -8 82 -108 93 -112 4 -2 7 -10 7 -17 0 -7 3 -15 8 -17 4 -1 29 -32 56
-68 28 -36 60 -76 73 -89 13 -13 23 -28 23 -32 0 -5 7 -17 16 -26 56 -64 84
-99 84 -108 0 -6 9 -16 20 -23 11 -7 20 -19 20 -26 0 -8 4 -16 8 -18 5 -1 39
-43 77 -93 38 -49 74 -95 80 -102 13 -16 24 -30 60 -78 16 -22 35 -47 42 -55
7 -8 49 -62 93 -120 45 -58 89 -114 98 -125 9 -11 24 -31 33 -45 9 -14 25 -35
36 -47 11 -12 28 -34 39 -48 10 -15 24 -32 29 -39 6 -6 24 -29 40 -51 27 -35
135 -177 200 -260 21 -27 48 -60 75 -92 5 -7 10 -16 10 -22 0 -5 4 -11 9 -13
5 -1 32 -34 62 -73 67 -88 70 -92 92 -116 9 -10 17 -21 17 -24 0 -3 5 -11 10
-18 12 -13 35 -43 65 -82 11 -14 30 -37 43 -50 12 -13 22 -26 22 -29 0 -4 100
-135 215 -281 13 -16 37 -48 54 -70 17 -22 40 -51 51 -65 11 -14 20 -28 20
-32 0 -5 113 -8 250 -8 l250 0 0 23 c0 12 2 1318 4 2902 2 1584 6 2903 9 2930
8 72 19 178 20 193 0 6 3 12 6 12 3 0 6 12 7 28 0 15 4 43 8 62 5 19 9 41 9
48 0 6 4 12 9 12 5 0 7 4 4 9 -12 19 69 233 125 331 51 89 232 290 260 290 6
0 19 9 31 19 34 33 348 181 348 166 0 -3 12 0 28 6 15 6 34 12 42 14 8 3 40
11 70 19 30 8 71 18 90 21 19 2 55 9 80 14 25 5 48 7 52 5 4 -2 9 0 13 6 4 6
11 8 16 5 5 -4 10 2 10 12 2 20 1 105 0 113 -1 3 -655 5 -1453 5 l-1453 0 0
-65 c0 -51 3 -65 15 -66 8 -1 17 -3 20 -4 3 -2 21 -4 40 -5 19 -2 35 -4 35 -5
0 -2 33 -8 80 -15 59 -8 69 -10 83 -18 6 -5 12 -6 12 -3 0 2 28 -3 63 -11 78
-19 79 -19 97 -26 8 -3 46 -15 84 -27 38 -11 87 -29 110 -40 22 -10 60 -26 84
-36 23 -10 42 -21 42 -26 0 -4 4 -7 8 -5 12 3 162 -92 162 -103 0 -5 8 -11 18
-15 15 -4 92 -77 158 -148 22 -25 111 -164 132 -207 34 -72 68 -160 85 -220
15 -52 18 -66 32 -132 3 -16 7 -39 10 -53 3 -14 7 -35 9 -47 6 -31 18 -141 22
-203 2 -27 4 -50 5 -50 1 0 2 -809 3 -1798 0 -988 -2 -1797 -5 -1797 -3 0 -36
39 -72 88 -37 48 -73 94 -80 102 -8 8 -25 31 -38 50 -13 19 -34 45 -46 58 -13
12 -23 26 -23 30 0 4 -14 21 -30 39 -17 18 -30 36 -30 40 0 5 -10 19 -23 33
-12 14 -65 81 -117 150 -52 69 -105 136 -117 150 -13 14 -23 28 -23 32 0 3 -6
13 -14 21 -14 13 -34 40 -161 207 -27 36 -53 67 -57 68 -5 2 -8 8 -8 13 0 5
-9 19 -19 31 -60 70 -71 84 -71 90 0 4 -11 18 -25 32 -14 14 -25 30 -25 36 0
5 -4 10 -8 10 -4 0 -16 13 -25 30 -10 16 -23 35 -30 42 -7 7 -47 58 -90 113
-42 55 -80 105 -84 110 -5 6 -24 30 -43 55 -19 25 -39 50 -45 57 -21 26 -31
39 -55 73 -29 43 -104 139 -125 161 -8 9 -15 21 -15 27 0 5 -4 12 -10 14 -5 2
-27 28 -50 58 -22 30 -51 69 -64 85 -54 67 -173 222 -196 255 -13 19 -35 46
-47 60 -13 14 -23 28 -23 31 0 3 -10 17 -22 31 -32 35 -47 55 -93 118 -21 30
-42 57 -45 60 -18 16 -210 272 -210 280 0 6 -3 10 -8 10 -4 0 -45 51 -92 113
-46 61 -87 114 -90 117 -3 3 -35 43 -70 90 -36 47 -67 87 -70 90 -3 3 -25 32
-50 65 -53 72 -60 81 -81 104 -9 10 -30 38 -46 62 -17 24 -45 60 -62 79 -17
19 -31 38 -31 42 0 4 -6 13 -13 20 -7 7 -58 72 -112 143 -55 72 -103 132 -107
133 -4 2 -8 10 -8 18 0 8 -5 14 -10 14 -6 0 -13 7 -17 16 -3 8 -14 25 -24 37
-18 20 -142 181 -199 257 -14 18 -29 38 -35 44 -5 6 -32 42 -60 79 -27 37 -58
78 -68 90 -24 28 -30 36 -195 252 -76 99 -160 209 -188 245 l-50 65 -1207 1
c-664 0 -1207 -2 -1208 -3z"/>
<path d="M19065 21850 c-4 -6 -11 -226 -20 -640 -2 -85 -5 -155 -5 -155 -1 0
-2 -14 -3 -32 -1 -17 2 -29 7 -26 5 4 6 0 1 -7 -8 -13 -12 -125 -18 -457 -1
-84 -6 -153 -11 -153 -5 0 -3 -6 3 -13 6 -8 9 -16 6 -18 -4 -5 -8 -115 -21
-619 -6 -215 -6 -212 -2 -215 3 -3 30 -7 129 -20 23 -3 30 4 68 78 40 79 98
190 171 327 19 36 37 67 41 70 3 3 13 21 23 40 9 19 23 44 29 55 12 19 71 121
92 157 60 103 101 168 108 168 4 0 7 4 7 10 0 8 137 224 162 255 5 6 43 57 85
115 110 152 193 252 319 381 96 98 141 140 209 194 28 22 52 42 55 45 16 16
100 70 109 70 6 0 11 3 11 8 0 4 21 19 48 32 26 14 49 28 50 33 2 4 8 5 13 1
5 -3 9 0 9 5 0 6 6 11 13 11 6 0 25 7 40 15 44 23 199 74 258 85 96 18 149 22
320 24 l168 1 0 -130 c-1 -71 0 -134 1 -140 1 -5 1 -14 0 -20 -7 -32 -6 -56 2
-61 4 -3 6 -10 2 -15 -5 -8 -8 -356 -3 -384 1 -5 0 -14 -1 -20 -7 -32 -6 -56
2 -61 4 -3 6 -10 2 -15 -5 -9 -8 -676 -3 -704 1 -5 0 -14 -1 -20 -7 -32 -6
-56 2 -61 4 -3 6 -10 2 -15 -5 -8 -8 -356 -3 -384 1 -5 0 -14 -1 -20 -7 -32
-6 -56 2 -61 4 -3 6 -10 2 -15 -5 -9 -8 -676 -3 -704 1 -5 0 -14 -1 -20 -7
-32 -6 -56 2 -61 4 -3 6 -10 2 -15 -5 -8 -8 -356 -3 -384 1 -5 0 -14 -1 -20
-7 -32 -6 -56 2 -61 4 -3 6 -10 2 -15 -5 -9 -8 -676 -3 -704 1 -5 0 -14 -1
-20 -7 -32 -6 -56 2 -61 4 -3 6 -10 2 -15 -5 -8 -8 -356 -3 -384 1 -5 0 -14
-1 -20 -7 -32 -6 -56 2 -61 4 -3 6 -10 2 -15 -5 -9 -8 -676 -3 -704 1 -5 0
-14 -1 -20 -7 -32 -6 -56 2 -61 4 -3 6 -10 2 -15 -5 -8 -8 -356 -3 -384 1 -5
0 -14 -1 -20 -7 -32 -6 -56 2 -61 4 -3 5 -10 2 -16 -3 -5 -6 -83 -6 -171 0
-89 -3 -166 -6 -171 -3 -5 -6 -25 -7 -45 -5 -89 -98 -217 -202 -280 -53 -33
-173 -84 -173 -74 0 3 -6 1 -12 -4 -7 -5 -40 -15 -73 -22 -33 -7 -67 -16 -75
-18 -8 -3 -26 -7 -40 -9 -14 -2 -38 -5 -55 -8 -95 -17 -246 -29 -470 -40 l-70
-3 0 -69 c0 -66 1 -69 25 -71 24 -2 79 -3 110 -2 8 1 35 0 60 0 25 0 52 -1 60
0 8 0 35 0 60 0 25 0 53 0 63 0 9 0 37 0 62 0 25 0 53 0 63 0 9 0 37 0 62 0
25 0 50 0 55 0 128 -2 262 -2 270 0 6 1 14 1 19 0 4 -1 36 -1 70 -1 73 1 74 1
156 0 36 -1 70 0 75 1 6 1 14 1 19 0 9 -2 83 -2 204 0 40 1 75 -1 77 -3 3 -2
29 -1 59 2 30 3 62 3 72 0 9 -4 36 -3 60 0 24 4 48 4 54 0 6 -3 33 -3 60 0 28
4 52 4 55 2 4 -4 113 -5 133 -2 4 1 34 1 67 0 33 -1 88 -2 123 -3 34 -1 62 0
62 4 0 3 25 2 56 -1 30 -3 57 -2 60 2 3 5 9 6 13 4 6 -4 71 -7 111 -5 8 0 80
0 160 -1 80 -1 150 0 155 1 6 1 14 1 19 0 4 -1 36 -1 70 -1 73 1 74 1 156 0
36 -1 70 0 75 1 6 1 14 1 19 0 4 -1 38 -1 75 -1 36 0 95 0 131 0 36 -1 71 -1
78 -1 6 0 38 0 70 0 31 0 68 0 82 1 14 1 32 1 40 1 8 0 40 0 70 0 30 0 62 0
70 0 34 -2 94 0 100 4 8 5 7 117 -2 130 -4 6 -56 12 -120 14 -62 2 -129 5
-148 6 -19 2 -62 6 -95 9 -63 6 -147 16 -180 22 -10 2 -35 6 -55 9 -57 9 -74
12 -157 35 -43 12 -84 27 -90 32 -7 6 -13 7 -13 4 0 -12 -137 65 -178 100 -67
57 -116 142 -138 239 -9 42 -13 6328 -3 6340 8 11 293 12 369 1 125 -17 202
-38 314 -83 110 -45 252 -125 312 -178 6 -5 22 -17 34 -25 46 -32 175 -147
244 -219 28 -30 60 -63 71 -75 43 -44 183 -217 240 -296 21 -30 42 -57 45 -60
4 -3 46 -66 96 -140 49 -74 91 -137 94 -140 10 -10 31 -45 36 -62 4 -10 10
-18 15 -18 5 0 9 -4 9 -10 0 -5 20 -41 45 -80 25 -39 45 -73 45 -76 0 -3 14
-26 30 -51 17 -24 30 -47 30 -50 0 -3 20 -38 44 -78 25 -40 42 -76 39 -79 -4
-3 -2 -6 3 -6 6 0 16 -16 24 -35 8 -19 17 -35 22 -35 4 0 8 -5 8 -11 0 -7 14
-34 30 -61 17 -26 30 -55 30 -62 0 -8 3 -16 8 -18 4 -1 20 -28 35 -58 93 -178
87 -170 115 -166 15 3 47 8 72 11 24 4 47 8 50 10 4 2 5 35 4 72 -2 60 -8 311
-19 863 -2 96 -7 294 -10 440 -4 146 -6 271 -6 278 2 22 1 36 -4 242 -3 113
-7 259 -8 325 l-3 120 -3218 0 c-1770 0 -3219 -2 -3221 -5z"/>
<path d="M26549 21833 c-1 -13 -1 -39 -1 -58 0 -19 0 -39 1 -44 1 -4 20 -9 44
-9 23 -1 58 -4 77 -7 19 -3 51 -7 70 -9 342 -41 650 -201 831 -431 60 -76 139
-213 139 -241 0 -8 5 -14 10 -14 5 0 9 -3 8 -7 -1 -5 8 -39 19 -78 19 -61 30
-101 38 -140 1 -5 6 -35 11 -65 11 -68 12 -4461 1 -4585 -4 -49 -9 -101 -11
-115 -3 -14 -7 -45 -10 -70 -8 -58 -17 -109 -32 -177 -3 -16 -7 -35 -8 -43 0
-8 -4 -18 -8 -21 -5 -3 -9 -17 -10 -32 -1 -15 -7 -27 -12 -27 -5 0 -7 -3 -4
-6 7 -7 -24 -97 -40 -117 -7 -8 -14 -24 -17 -35 -2 -11 -16 -40 -31 -63 -16
-24 -29 -46 -29 -49 -1 -14 -89 -121 -136 -167 -55 -53 -132 -114 -159 -126
-8 -4 -28 -16 -45 -27 -16 -11 -39 -24 -50 -29 -11 -5 -45 -20 -75 -34 -47
-21 -110 -44 -145 -54 -5 -1 -59 -16 -120 -33 -60 -16 -111 -30 -113 -29 -2 1
-69 -10 -162 -25 -14 -3 -27 -5 -30 -5 -3 -1 -5 -31 -4 -68 1 -64 2 -68 25
-70 22 -2 85 -3 119 -2 8 0 80 0 160 -1 80 -1 150 0 155 1 6 1 14 1 19 0 4 -1
36 -1 70 -1 73 1 74 1 156 0 36 -1 70 0 75 1 6 1 14 1 19 0 4 -1 38 -1 75 -1
36 0 95 0 131 0 36 -1 71 -1 78 -1 70 0 125 0 137 0 28 0 85 0 98 0 6 0 32 0
57 0 25 0 52 0 60 0 8 0 33 0 55 0 22 1 48 1 58 0 38 -1 153 0 172 1 23 1 26
1 85 1 25 0 53 0 63 0 9 0 37 0 62 0 25 0 53 0 63 0 9 0 37 0 62 0 25 0 50 0
55 0 128 -2 262 -2 270 0 6 1 14 1 19 0 4 -1 36 -1 70 -1 33 0 69 1 79 1 30
-1 146 0 162 0 8 0 43 0 78 -1 70 -1 89 1 98 13 5 7 3 127 -3 132 -2 2 -32 6
-68 10 -91 10 -108 12 -170 25 -30 6 -66 13 -80 15 -14 3 -52 12 -85 21 -33 9
-67 17 -75 19 -8 2 -15 4 -15 5 0 1 -7 3 -15 5 -33 6 -188 70 -240 98 -302
163 -467 389 -555 761 -13 56 -26 124 -29 151 -6 53 -14 117 -22 175 -8 57
-11 4419 -3 4414 4 -2 50 -59 101 -125 220 -286 282 -364 290 -367 4 -2 8 -10
8 -17 0 -7 3 -15 8 -17 4 -1 27 -30 52 -63 25 -33 51 -66 58 -74 8 -8 32 -39
55 -70 22 -31 46 -61 51 -67 6 -6 18 -22 26 -34 8 -13 23 -30 33 -39 9 -8 17
-19 17 -24 0 -5 6 -14 13 -21 6 -7 46 -56 87 -110 41 -54 105 -137 142 -184
38 -48 71 -92 75 -97 5 -6 33 -42 63 -80 31 -39 67 -86 80 -105 14 -19 32 -44
42 -55 9 -11 26 -31 37 -44 12 -13 21 -27 21 -30 0 -3 18 -26 40 -51 22 -25
40 -48 40 -51 0 -3 9 -17 21 -30 11 -13 46 -58 77 -99 32 -41 59 -77 63 -80 3
-3 18 -23 35 -45 33 -45 37 -50 97 -125 60 -76 195 -252 280 -364 12 -16 28
-35 35 -42 6 -7 12 -15 12 -17 0 -3 11 -18 24 -33 46 -54 176 -225 176 -231 0
-3 8 -13 18 -22 10 -9 29 -32 42 -51 13 -19 30 -40 36 -47 7 -7 34 -42 60 -78
26 -36 51 -65 56 -65 4 0 8 -5 8 -10 0 -6 29 -48 65 -93 81 -101 83 -103 201
-257 52 -69 103 -134 112 -145 10 -11 28 -36 42 -55 13 -19 30 -39 37 -43 7
-4 13 -13 13 -18 0 -6 13 -24 30 -42 16 -18 30 -35 30 -39 0 -4 6 -13 13 -20
10 -10 112 -140 159 -203 4 -5 20 -26 35 -45 16 -19 42 -53 58 -75 16 -22 32
-42 35 -45 3 -3 66 -84 140 -180 74 -96 138 -179 143 -185 9 -12 260 -336 297
-385 14 -18 32 -41 40 -50 8 -10 23 -28 33 -39 9 -12 17 -25 17 -30 0 -5 3
-11 8 -13 4 -1 23 -23 42 -48 19 -25 38 -49 43 -55 4 -5 58 -75 119 -155 61
-80 115 -146 120 -148 4 -2 8 -8 8 -14 0 -6 14 -27 31 -47 39 -46 59 -72 83
-105 11 -15 30 -39 43 -54 13 -15 33 -42 44 -59 11 -18 24 -33 29 -33 5 0 11
-8 14 -17 4 -10 19 -32 34 -50 48 -55 62 -73 57 -73 -2 0 7 -12 20 -26 14 -15
25 -31 25 -35 0 -5 113 -9 250 -9 l250 0 0 98 c0 53 2 1362 4 2907 2 1546 5
2830 8 2855 11 99 19 159 23 178 2 11 6 35 9 53 20 117 46 213 87 313 27 67
42 96 94 184 50 84 170 207 271 275 39 26 75 47 80 47 6 0 16 6 22 13 7 6 16
12 20 12 4 1 21 8 39 18 17 9 58 26 90 38 32 11 67 24 78 29 27 11 175 51 200
54 11 1 26 5 33 9 6 5 12 6 12 4 0 -3 17 -1 38 4 20 5 57 12 82 15 25 3 46 7
48 9 3 2 5 95 3 120 -1 7 -468 11 -1456 10 l-1455 0 0 -62 c0 -34 4 -65 10
-68 5 -3 31 -8 57 -10 27 -3 59 -7 73 -10 13 -2 42 -7 65 -11 22 -3 45 -7 50
-8 6 -1 16 -5 23 -9 6 -5 12 -6 12 -4 0 3 17 1 38 -4 20 -5 48 -12 62 -15 38
-7 178 -54 245 -81 284 -115 477 -284 605 -528 27 -52 81 -187 81 -202 0 -2 5
-17 10 -35 13 -39 29 -104 35 -135 2 -13 6 -34 9 -48 11 -57 14 -73 20 -140 4
-38 10 -86 12 -105 7 -55 9 -3650 2 -3650 -4 0 -19 17 -35 38 -33 43 -36 47
-69 87 -14 17 -28 38 -31 48 -3 9 -9 17 -13 17 -5 0 -21 19 -37 42 -16 24 -37
52 -46 63 -35 40 -108 135 -108 140 0 5 -9 15 -55 66 -8 9 -15 21 -15 27 0 5
-3 12 -8 14 -4 2 -23 23 -41 48 -19 25 -39 50 -45 55 -6 6 -15 18 -21 27 -13
21 -121 163 -138 180 -7 7 -37 47 -67 88 -68 93 -70 96 -98 125 -13 14 -20 25
-16 25 4 0 -2 8 -12 18 -11 9 -30 34 -44 54 -14 21 -28 38 -32 38 -5 0 -8 5
-8 10 0 10 -5 16 -58 75 -12 14 -20 25 -17 25 2 0 -2 8 -10 18 -24 29 -109
136 -135 172 -50 67 -180 236 -200 258 -11 13 -20 26 -20 28 0 5 -12 20 -40
53 -8 9 -49 62 -90 116 -41 55 -77 102 -80 105 -21 21 -70 91 -70 100 0 6 -4
8 -10 5 -5 -3 -10 0 -10 9 0 8 -4 16 -8 18 -5 2 -28 30 -53 63 -24 33 -46 62
-49 65 -3 3 -25 32 -50 65 -55 73 -71 93 -88 111 -7 8 -11 14 -8 14 3 0 -2 8
-11 18 -10 10 -29 33 -43 52 -14 18 -68 89 -120 156 -52 67 -102 132 -110 144
-8 12 -30 39 -47 59 -18 20 -33 41 -33 48 0 6 -4 13 -9 15 -4 2 -30 32 -57 68
-27 36 -55 72 -62 80 -7 8 -55 71 -108 140 -131 173 -188 244 -196 248 -5 2
-8 8 -8 13 0 5 -6 17 -14 26 -70 86 -106 133 -106 139 0 4 -6 12 -13 18 -8 6
-58 70 -112 141 -54 72 -105 136 -113 143 -9 6 -12 12 -6 12 5 0 4 4 -1 8 -6
4 -26 27 -45 52 -19 25 -38 47 -42 48 -5 2 -8 10 -8 17 0 7 -3 15 -8 17 -4 2
-46 53 -92 113 -46 61 -88 112 -92 113 -5 2 -8 10 -8 17 0 8 -8 20 -17 27 -10
7 -34 36 -53 63 -19 28 -40 56 -47 63 -7 7 -39 48 -70 90 -32 42 -61 79 -65
80 -5 2 -8 10 -8 18 0 8 -4 14 -8 14 -5 0 -24 21 -42 48 -19 26 -37 49 -40 52
-3 3 -33 42 -67 87 -34 45 -66 88 -72 95 -6 7 -21 27 -35 43 l-24 30 -1206 0
-1206 1 -1 -23z"/>
</g>
</svg>
